<mxfile host="Electron" agent="Mozilla/5.0 (X11; Linux x86_64) AppleWebKit/537.36 (KHTML, like Gecko) draw.io/24.7.5 Chrome/126.0.6478.183 Electron/31.3.0 Safari/537.36" version="24.7.5">
  <diagram name="Page-1" id="T7y7vfS8htSManGt9zvz">
    <mxGraphModel dx="1434" dy="822" grid="1" gridSize="10" guides="1" tooltips="1" connect="1" arrows="1" fold="1" page="1" pageScale="1" pageWidth="850" pageHeight="1100" math="0" shadow="0">
      <root>
        <mxCell id="0" />
        <mxCell id="1" parent="0" />
        <mxCell id="GkvW0CMtngjdruLvTlMq-47" value="&lt;div style=&quot;&quot;&gt;&lt;span style=&quot;background-color: initial;&quot;&gt;Agora Front&lt;/span&gt;&lt;/div&gt;" style="shape=document;whiteSpace=wrap;html=1;boundedLbl=1;fontStyle=1;align=right;" vertex="1" parent="1">
          <mxGeometry x="63.75" y="245" width="330" height="540" as="geometry" />
        </mxCell>
        <mxCell id="GkvW0CMtngjdruLvTlMq-46" value="&lt;b&gt;Agora back&lt;/b&gt;" style="shape=cylinder3;whiteSpace=wrap;html=1;boundedLbl=1;backgroundOutline=1;size=15;align=left;" vertex="1" parent="1">
          <mxGeometry x="425" y="240" width="580" height="550" as="geometry" />
        </mxCell>
        <mxCell id="GkvW0CMtngjdruLvTlMq-5" value="Module 5: PostgreSQL database" style="rounded=0;whiteSpace=wrap;html=1;fillColor=#d5e8d4;strokeColor=#82b366;" vertex="1" parent="1">
          <mxGeometry x="817.5" y="410" width="155" height="330" as="geometry" />
        </mxCell>
        <mxCell id="GkvW0CMtngjdruLvTlMq-4" value="Module 4: backend application" style="rounded=0;whiteSpace=wrap;html=1;fillColor=#d5e8d4;strokeColor=#82b366;" vertex="1" parent="1">
          <mxGeometry x="505" y="320" width="280" height="420" as="geometry" />
        </mxCell>
        <mxCell id="GkvW0CMtngjdruLvTlMq-2" value="Module 2: frontend application" style="rounded=0;whiteSpace=wrap;html=1;fillColor=#d5e8d4;strokeColor=#82b366;" vertex="1" parent="1">
          <mxGeometry x="80" y="270" width="200" height="320" as="geometry" />
        </mxCell>
        <mxCell id="GkvW0CMtngjdruLvTlMq-3" value="Module 3: shared module" style="rounded=0;whiteSpace=wrap;html=1;fillColor=#d5e8d4;strokeColor=#82b366;" vertex="1" parent="1">
          <mxGeometry x="655" y="670" width="120" height="60" as="geometry" />
        </mxCell>
        <mxCell id="GkvW0CMtngjdruLvTlMq-6" value="Module 6: Integration with RariMe" style="rounded=0;whiteSpace=wrap;html=1;fillColor=#dae8fc;strokeColor=#6c8ebf;" vertex="1" parent="1">
          <mxGeometry x="655" y="400" width="120" height="60" as="geometry" />
        </mxCell>
        <mxCell id="GkvW0CMtngjdruLvTlMq-7" value="Module 7: Integration with Polis" style="rounded=0;whiteSpace=wrap;html=1;fillColor=#dae8fc;strokeColor=#6c8ebf;" vertex="1" parent="1">
          <mxGeometry x="655" y="330" width="120" height="60" as="geometry" />
        </mxCell>
        <mxCell id="GkvW0CMtngjdruLvTlMq-8" value="Module 8: embedded Polis views" style="rounded=0;whiteSpace=wrap;html=1;fillColor=#dae8fc;strokeColor=#6c8ebf;" vertex="1" parent="1">
          <mxGeometry x="150" y="350" width="120" height="60" as="geometry" />
        </mxCell>
        <mxCell id="GkvW0CMtngjdruLvTlMq-9" value="Module 9: Nostr Verifiable Moderation Integration" style="rounded=0;whiteSpace=wrap;html=1;fillColor=#f8cecc;strokeColor=#b85450;" vertex="1" parent="1">
          <mxGeometry x="655" y="580" width="120" height="60" as="geometry" />
        </mxCell>
        <mxCell id="GkvW0CMtngjdruLvTlMq-35" value="Module 3: shared module" style="rounded=0;whiteSpace=wrap;html=1;fillColor=#d5e8d4;strokeColor=#82b366;" vertex="1" parent="1">
          <mxGeometry x="150" y="520" width="120" height="60" as="geometry" />
        </mxCell>
        <mxCell id="GkvW0CMtngjdruLvTlMq-36" value="Module 6: Integration with RariMe" style="rounded=0;whiteSpace=wrap;html=1;fillColor=#dae8fc;strokeColor=#6c8ebf;" vertex="1" parent="1">
          <mxGeometry x="150" y="280" width="120" height="60" as="geometry" />
        </mxCell>
        <mxCell id="GkvW0CMtngjdruLvTlMq-37" value="Module 3: shared module" style="rounded=0;whiteSpace=wrap;html=1;fillColor=#d5e8d4;strokeColor=#82b366;" vertex="1" parent="1">
          <mxGeometry x="95.61999999999999" y="810" width="228.75" height="310" as="geometry" />
        </mxCell>
        <mxCell id="GkvW0CMtngjdruLvTlMq-38" value="Module 6: Integration with RariMe" style="rounded=0;whiteSpace=wrap;html=1;fillColor=#dae8fc;strokeColor=#6c8ebf;" vertex="1" parent="1">
          <mxGeometry x="194.37" y="820" width="120" height="60" as="geometry" />
        </mxCell>
        <mxCell id="GkvW0CMtngjdruLvTlMq-39" value="Module 1: local-first authentication" style="rounded=0;whiteSpace=wrap;html=1;fillColor=#fff2cc;strokeColor=#d6b656;" vertex="1" parent="1">
          <mxGeometry x="194.37" y="1040" width="120" height="60" as="geometry" />
        </mxCell>
        <mxCell id="GkvW0CMtngjdruLvTlMq-40" value="Module 1: local-first authentication" style="rounded=0;whiteSpace=wrap;html=1;fillColor=#fff2cc;strokeColor=#d6b656;" vertex="1" parent="1">
          <mxGeometry x="150" y="450" width="120" height="60" as="geometry" />
        </mxCell>
        <mxCell id="GkvW0CMtngjdruLvTlMq-1" value="Module 1: local-first authentication" style="rounded=0;whiteSpace=wrap;html=1;fillColor=#fff2cc;strokeColor=#d6b656;" vertex="1" parent="1">
          <mxGeometry x="835" y="420" width="120" height="60" as="geometry" />
        </mxCell>
        <mxCell id="GkvW0CMtngjdruLvTlMq-42" value="Module 9: Nostr Verifiable Moderation Integration" style="rounded=0;whiteSpace=wrap;html=1;fillColor=#f8cecc;strokeColor=#b85450;" vertex="1" parent="1">
          <mxGeometry x="835" y="490" width="120" height="60" as="geometry" />
        </mxCell>
        <mxCell id="GkvW0CMtngjdruLvTlMq-43" value="Module 1: local-first authentication" style="rounded=0;whiteSpace=wrap;html=1;fillColor=#fff2cc;strokeColor=#d6b656;" vertex="1" parent="1">
          <mxGeometry x="520" y="330" width="120" height="60" as="geometry" />
        </mxCell>
        <mxCell id="GkvW0CMtngjdruLvTlMq-44" value="Module 7: Integration with Polis" style="rounded=0;whiteSpace=wrap;html=1;fillColor=#dae8fc;strokeColor=#6c8ebf;" vertex="1" parent="1">
          <mxGeometry x="835" y="665" width="120" height="60" as="geometry" />
        </mxCell>
        <mxCell id="GkvW0CMtngjdruLvTlMq-45" value="Module 6: Integration with RariMe" style="rounded=0;whiteSpace=wrap;html=1;fillColor=#dae8fc;strokeColor=#6c8ebf;" vertex="1" parent="1">
          <mxGeometry x="835" y="600" width="120" height="60" as="geometry" />
        </mxCell>
        <mxCell id="GkvW0CMtngjdruLvTlMq-48" value="Module 7: Integration with Polis" style="rounded=0;whiteSpace=wrap;html=1;fillColor=#dae8fc;strokeColor=#6c8ebf;" vertex="1" parent="1">
          <mxGeometry x="194.37" y="890" width="120" height="60" as="geometry" />
        </mxCell>
      </root>
    </mxGraphModel>
  </diagram>
</mxfile>
